<svg height="20" viewBox="0 0 20 20" width="20" xmlns="http://www.w3.org/2000/svg"><path d="m6.69631568 10.316205c-.27209505-.36403992-.19778626-.87989925.16597333-1.15220402.36375958-.27230477.87922161-.1979387 1.15131666.16610126.57178638.76500136 1.44738937 1.24375246 2.39955293 1.31199716.9521637.0682446 1.8870022-.2807462 2.5619911-.95650031l2.4575395-2.45925795c1.2468484-1.29195244 1.2290167-3.34557554-.0400778-4.61564826s-3.321136-1.28791815-4.6035964-.04844144l-1.4147338 1.40759273c-.32214903.32052292-.84293746.31900342-1.16321352-.00339391-.32027607-.32239733-.31875773-.84358717.00339129-1.1641101l1.42323082-1.41592543c1.93643611-1.87171412 5.01449831-1.84494598 6.91814011.06016311 1.9036418 1.90510908 1.9303893 4.98554373.0500973 6.93367537l-2.4674536 2.46935539c-1.0123252 1.0134728-2.414583 1.5369592-3.8428285 1.4345922-1.42824537-.102367-2.74164985-.8204936-3.59932942-1.9679958zm4.60736862-2.63241004c.2720951.36403996.1977863.87989929-.1659733 1.15220406s-.8792216.1979387-1.15131667-.16610126c-.57178638-.76500141-1.44738937-1.24375251-2.39955298-1.31199716s-1.88700219.28074624-2.56199106.95650031l-2.45753953 2.45925799c-1.24684838 1.2919524-1.22901669 3.3455755.04007785 4.6156482 1.26909453 1.2700727 3.32113597 1.2879182 4.60189825.0501359l1.40650863-1.4075927c.32121391-.3214615.84200455-.3214615 1.16321846 0 .32121395.3214615.32121395.8426536 0 1.1641151l-1.41670374 1.4176199c-1.93643611 1.8717141-5.01449826 1.8449459-6.91814007-.0601631-1.90364181-1.9051091-1.93038933-4.9855438-.0500973-6.93367541l2.46745356-2.46935539c1.01232516-1.01347282 2.41458304-1.53695915 3.84282846-1.43459218 1.42824541.10236698 2.74164994.82049363 3.59932944 1.96799574z" fill="#ff9e72" stroke="#ff9e72" stroke-width=".5" transform="translate(1 1)"/></svg>