<svg fill="none" height="18" viewBox="0 0 18 18" width="18" xmlns="http://www.w3.org/2000/svg"><path clip-rule="evenodd" d="m8.18182 0v8.18182h-8.18182v-8.18182zm-6.54546 6.54545h4.90909v-4.90909h-4.90909zm3.27273-1.63636v-1.63636h-1.63636v1.63636zm0 9.81821v-1.6364h-1.63636v1.6364zm9.81821-11.45457v1.63636h-1.6364v-1.63636zm-8.18185 13.07817h-4.90909v-4.8964h4.90909zm9.81815-9.80545h-4.9091v-4.90909h4.9091zm-8.18178 3.27273v8.18182h-8.18182v-8.18182zm6.54548 8.18182v-1.6364h-1.6364v1.6364zm3.2727-1.6364v1.6364h-1.6364v-1.6364zm0-1.6363v-4.90912h-1.6364v1.63632h-1.6363v-1.63632h-4.90912v8.18182h1.63632v-4.9091h1.6364v1.6364zm0-6.54548v-8.18182h-8.18182v8.18182z" fill="#9c72ff" fill-rule="evenodd"/></svg>