<svg fill="none" height="20" viewBox="0 0 20 20" width="20" xmlns="http://www.w3.org/2000/svg"><path d="m10 .982422c-4.98008 0-9.017578 4.037498-9.017578 9.017578 0 1.8221.541798 3.5217 1.473238 4.9393l-1.16152 3.9336 4.08574-1.1319c1.35078.809 2.93164 1.2729 4.62012 1.2729 4.9801 0 9.0176-4.0375 9.0176-9.01761 0-4.97637-4.0375-9.013868-9.0176-9.013868z" fill="#25d366"/><path d="m14.9525 12.4754c-.0112-.1187-.0817-.2227-.1893-.2709-.7273-.334-1.4584-.668-2.1857-1.002-.0817-.0371-.1819-.0185-.2412.052l-.9872 1.1133c-.0779.089-.2003.1187-.308.0742-.5121-.2115-1.20231-.5678-1.89997-1.1689-.83496-.7163-1.3248-1.48442-1.59941-1.98539.1373-.09278.51211-.3711.6791-.88692 0-.00371.00371-.00742.00371-.00742.10391-.31914.08164-.66426-.0334-.97969-.19668-.52324-.59004-1.53633-.74218-1.69219-.02598-.02597-.05567-.05195-.05567-.05195-.11133-.10019-.25605-.15586-.4082-.16328-.05195-.00371-.10762-.00371-.16699-.00371-.17071-.00371-.32285-.00371-.43418.01113-.31543.04453-.54551.25606-.69024.43418-.17441.21153-.38222.52696-.51953.94258-.01113.03711-.02226.07051-.0334.10762-.15215.52695-.12246 1.09101.05938 1.61054.1707.48614.41933 1.06504.79414 1.6773.63457 1.0428 1.3248 1.6885 1.79238 2.1153.52695.4861 1.18008 1.0836 2.21546 1.5808.9574.4602 1.8258.6309 2.4084.7014.2375.0223.6754.026 1.1763-.1633.2301-.089.4231-.1967.5789-.3117.412-.2932.7014-.7348.7756-1.232 0-.0037 0-.0074 0-.0112.026-.1892.0223-.3525.0112-.4898z" fill="#fff"/></svg>